<?xml version="1.0" encoding="UTF-8"?>
<svg id="Layer_2" data-name="Layer 2" xmlns="http://www.w3.org/2000/svg" viewBox="0 0 500 562.43">
  <defs>
    <style>
      .cls-1 {
        fill: #26304b;
      }
    </style>
  </defs>
  <g id="Layer_1-2" data-name="Layer 1">
    <path class="cls-1" d="M387.64,129.09s.05-.08.08-.11c49.13-89.69-66.57-174.63-137.72-100.96-71.15-73.69-186.85,11.32-137.72,100.96.02.04.06.08.08.12C42.63,175.16.18,252.71.18,337.35c-2.85,45.16,27.43,144.58,134.31,225.08l115.42-78.32h.17s115.42,78.32,115.42,78.32c106.93-80.57,137.16-179.92,134.32-225.09,0-84.64-42.45-162.19-112.18-208.26ZM156.7,56.07c16.53-16.46,43.28-16.48,59.75,0,0,0,33.54,33.53,33.54,33.53l33.54-33.53c25.57-26.6,72.94-6.94,72.12,29.88,0,11.33-4.35,21.95-12.37,29.96l-93.29,93.3-93.29-93.3c-16.37-15.77-16.42-44.03,0-59.84ZM250,430.89c-34.76-26.39-75.61-67.6-75.61-93.55-.19-41.83,34.6-75.78,75.61-75.61,41.01-.17,75.8,33.78,75.61,75.61,0,25.95-40.85,67.16-75.61,93.55ZM43.73,337.35c0-71.87,37.04-137.63,97.6-175.22l64.58,64.58c-43.9,17.51-75.09,60.54-75.09,110.63,0,45.73,49.82,93.54,81.7,119.5l-75.22,51.04c-81.06-72-93.58-137.21-93.58-170.54ZM362.69,507.89l-75.22-51.05c31.88-25.96,81.7-73.77,81.7-119.5,0-50.09-31.19-93.12-75.09-110.63l64.59-64.59c60.57,37.59,97.61,103.35,97.61,175.23,0,33.33-12.51,98.53-93.58,170.54Z"/>
  </g>
</svg>