<?xml version="1.0" encoding="UTF-8"?>
<svg id="Layer_2" data-name="Layer 2" xmlns="http://www.w3.org/2000/svg" viewBox="0 0 650 191.55">
  <defs>
    <style>
      .cls-1 {
        fill: #fff;
      }

      .cls-2 {
        fill: #39cea6;
      }
    </style>
  </defs>
  <g id="Layer_1-2" data-name="Layer 1">
    <g>
      <g>
        <g>
          <path class="cls-1" d="M242.31,139.49c-1.52-1.4-4.95-3.22-10.03-3.22-3.3,0-6.22,1.06-6.22,3.98s4.11,3.13,8.3,3.43c4.95.34,12.74.85,12.74,8.55,0,6.69-5.59,9.27-12.19,9.27-7.28,0-12.02-3.01-15.11-5.8l2.88-3.3c2.24,2.03,6.14,5,12.32,5,4.11,0,7.37-1.4,7.37-4.53,0-3.47-3.18-4.19-8-4.57-6.1-.42-13.04-.93-13.04-7.62s6.05-8.51,11.13-8.51c5.84,0,10.54,2.29,12.74,4.02l-2.88,3.3Z"/>
          <path class="cls-1" d="M270.76,157.48c-2.24,2.16-5.97,3.81-10.08,3.81-6.56,0-10.29-4.87-10.29-10.71,0-6.14,4.36-11.05,10.67-11.05,4.91,0,10.29,3.01,10.29,10.63,0,.38,0,.8-.04,1.23h-16.51c.3,3.34,2.37,6.05,6.35,6.05,2.54,0,5.08-1.1,6.69-2.79l2.92,2.84ZM255.06,147.96h11.47c-.04-3.26-2.96-4.78-5.67-4.78-3.13,0-5.08,2.12-5.8,4.78Z"/>
          <path class="cls-1" d="M280.21,147.28v13.38h-4.36v-14.86c0-1.82-.17-3.64-.55-5.59h4.02c.25,1.19.34,2.07.42,3.43,1.35-2.07,2.96-4.11,5.93-4.11,1.19,0,2.33.3,2.88.85l-1.31,4.06c-.59-.38-1.95-.64-2.58-.64-1.95,0-3.3,1.82-4.45,3.47Z"/>
          <path class="cls-1" d="M311.81,140.21l-8.93,20.45h-3.64l-8.89-20.45h4.95l5.76,14.39h.25l6.01-14.39h4.49Z"/>
          <path class="cls-1" d="M317.27,131.02c1.57,0,2.79,1.19,2.79,2.54s-1.23,2.5-2.79,2.5-2.75-1.1-2.75-2.5,1.19-2.54,2.75-2.54ZM315.11,160.66v-20.45h4.36v20.45h-4.36Z"/>
          <path class="cls-1" d="M335.99,139.53c4.4,0,7.87,3.05,7.87,7.28v13.84h-4.4v-13.84c0-1.86-1.74-3.43-4.19-3.43s-4.32,1.65-5.59,3.26v14.01h-4.36v-14.82c0-1.82-.13-3.68-.51-5.63h3.98c.25,1.06.34,1.82.42,3.01,1.52-1.86,3.39-3.68,6.77-3.68Z"/>
          <path class="cls-1" d="M364.57,158.16c-1.82,2.03-4.02,3.13-6.31,3.13-5.46,0-10.03-4.28-10.03-10.8s4.53-10.97,10.03-10.97c3.3,0,5.84,2.37,6.73,3.73,0-1.02.08-2.07.3-3.09h4.02c-.38,1.95-.38,3.85-.38,5.63v15.92c0,4.7-3.47,8.55-10.25,8.55-4.7,0-7.49-1.52-9.36-3.39l2.58-2.62c1.35,1.31,3.34,2.37,6.77,2.37,3.85,0,5.88-2.12,5.88-4.91v-3.56ZM364.57,154.65v-8.38c-.68-.85-2.75-2.88-5.88-2.88s-5.63,2.79-5.63,7.11,2.5,6.99,5.63,6.99c2.12,0,4.19-1.1,5.88-2.84Z"/>
          <path class="cls-1" d="M381.17,140.21h3.81v-6.05h4.36v6.05h5.38v3.43h-5.38v11.94c0,1.35.93,2.07,2.41,2.07.85,0,2.46-.17,2.96-.34l.42,3.43c-.72.47-2.84.76-4.23.76-2.71,0-5.93-1.48-5.93-5.93v-11.94h-3.81v-3.43Z"/>
          <path class="cls-1" d="M398.66,160.66v-29.64h4.36v11.69c1.27-1.52,3.3-3.18,5.97-3.18,4.91,0,8.21,3.05,8.21,7.28v13.84h-4.4v-13.84c0-1.86-1.74-3.43-4.23-3.43s-4.32,1.69-5.55,3.26v14.01h-4.36Z"/>
          <path class="cls-1" d="M441.91,157.48c-2.24,2.16-5.97,3.81-10.08,3.81-6.56,0-10.29-4.87-10.29-10.71,0-6.14,4.36-11.05,10.67-11.05,4.91,0,10.29,3.01,10.29,10.63,0,.38,0,.8-.04,1.23h-16.51c.3,3.34,2.37,6.05,6.35,6.05,2.54,0,5.08-1.1,6.69-2.79l2.92,2.84ZM426.21,147.96h11.47c-.04-3.26-2.96-4.78-5.67-4.78-3.13,0-5.08,2.12-5.8,4.78Z"/>
          <path class="cls-1" d="M456.81,160.66v-27.65h4.74v10.46h15.03v-10.46h4.74v27.65h-4.74v-12.95h-15.03v12.95h-4.74Z"/>
          <path class="cls-1" d="M495.73,161.29c-4.4,0-7.87-3.01-7.87-7.24v-13.84h4.4v13.84c0,1.86,1.74,3.43,4.19,3.43s4.32-1.65,5.59-3.26v-14.01h4.36v14.82c0,1.78,0,3.68.38,5.63h-4.02c-.21-.89-.3-2.12-.3-3.01-1.52,1.86-3.34,3.64-6.73,3.64Z"/>
          <path class="cls-1" d="M530.03,160.66h-4.4v-13.84c0-1.86-1.57-3.43-3.77-3.43s-3.98,1.65-5.17,3.26v14.01h-4.36v-14.86c0-1.82-.13-3.64-.51-5.59h3.98c.25,1.06.34,1.82.42,3.01,1.44-1.86,3.18-3.68,6.35-3.68,3.01,0,5.55,1.61,6.73,4.11,1.44-2.2,3.47-4.11,6.6-4.11,4.15,0,7.45,3.05,7.45,7.28v13.84h-4.4v-13.84c0-1.86-1.57-3.43-3.77-3.43s-3.98,1.65-5.17,3.26v14.01Z"/>
          <path class="cls-1" d="M548.79,142.16c1.86-1.14,5.5-2.63,9.7-2.63,4.61,0,9.27,1.52,9.27,6.01v11.43c0,1.06.08,2.58.55,3.68h-4.4c-.25-.59-.42-1.74-.51-2.54-1.61,1.4-3.85,2.96-7.79,2.96-4.87,0-8.04-2.88-8.04-7.03,0-3.64,3.34-6.56,9.44-6.56,2.24,0,4.95.51,6.39,1.57v-2.24c0-2.5-2.2-3.56-5.12-3.56-3.18,0-6.52,1.48-7.96,2.5l-1.52-3.6ZM563.39,154.52v-2.07c-.93-.68-3.09-1.52-5.67-1.52-4.28,0-5.76,1.35-5.76,3.13,0,1.91,1.65,3.39,4.57,3.39,3.81,0,6.44-2.46,6.86-2.92Z"/>
          <path class="cls-1" d="M584.15,139.53c4.4,0,7.87,3.05,7.87,7.28v13.84h-4.4v-13.84c0-1.86-1.74-3.43-4.19-3.43s-4.32,1.65-5.59,3.26v14.01h-4.36v-14.82c0-1.82-.13-3.68-.51-5.63h3.98c.25,1.06.34,1.82.42,3.01,1.52-1.86,3.39-3.68,6.77-3.68Z"/>
          <path class="cls-1" d="M599.74,131.02c1.57,0,2.79,1.19,2.79,2.54s-1.23,2.5-2.79,2.5-2.75-1.1-2.75-2.5,1.19-2.54,2.75-2.54ZM597.58,160.66v-20.45h4.36v20.45h-4.36Z"/>
          <path class="cls-1" d="M605.23,140.21h3.81v-6.05h4.36v6.05h5.38v3.43h-5.38v11.94c0,1.35.93,2.07,2.41,2.07.85,0,2.46-.17,2.96-.34l.42,3.43c-.72.47-2.84.76-4.23.76-2.71,0-5.93-1.48-5.93-5.93v-11.94h-3.81v-3.43Z"/>
          <path class="cls-1" d="M632.27,154.39l6.35-14.18h4.45l-13.93,29.21h-4.53l5.17-10.2-8.55-19.01h4.95l5.84,14.18h.25Z"/>
        </g>
        <g>
          <path class="cls-1" d="M212.86,27.47h82.22v13.16h-33.68v72.75h-14.73V40.62h-33.81v-13.16Z"/>
          <path class="cls-1" d="M306.55,113.37V27.47h47.36c12.1,0,19.6,3.42,24.86,9.08,4.6,5,6.84,10.92,6.84,17.23,0,7.37-3.03,13.81-7.89,18.55-5.13,4.87-12.37,8.02-23.81,8.02h-32.63v33.02h-14.73ZM321.28,40.62v26.57h32.63c3.68,0,8.81-.26,13.02-4.21,2.5-2.37,3.95-5.66,3.95-9.08s-1.32-6.31-3.55-8.68c-3.95-4.21-9.21-4.6-13.42-4.6h-32.63Z"/>
          <path class="cls-1" d="M397.9,113.37V27.47h69.07v13.16h-54.33v21.31h33.02v13.16h-33.02v38.28h-14.73Z"/>
          <path class="cls-1" d="M495.56,27.47h13.42l39.86,85.91h-16.18l-10.39-23.15h-40.91l-10.26,23.15h-15.39l39.86-85.91ZM486.62,78.38h30.39l-14.73-33.28h-.79l-14.87,33.28Z"/>
          <path class="cls-1" d="M564.94,21.28c4.87,0,8.68,3.68,8.68,7.89s-3.82,7.76-8.68,7.76-8.55-3.42-8.55-7.76,3.68-7.89,8.55-7.89ZM558.23,113.37v-63.54h13.55v63.54h-13.55Z"/>
          <path class="cls-1" d="M637.5,113.37c-.66-2.76-.92-6.05-.92-8.81-2.76,4.21-10.66,10.79-20.92,10.79-17.1,0-31.18-13.29-31.18-33.94s14.21-33.68,31.18-33.68c7.1,0,13.94,3.03,19.6,8.55V21.28h13.55v74.59c0,5.53,0,11.45,1.18,17.5h-12.5ZM599.48,81.4c0,13.42,7.89,22.1,17.5,22.1s16.18-6.31,18.29-8.95v-26.05c-5.26-5.39-11.71-8.81-18.29-8.81-9.73,0-17.5,8.55-17.5,21.71Z"/>
        </g>
      </g>
      <path class="cls-2" d="M132.02,43.97s.02-.03.03-.04c16.73-30.55-22.67-59.48-46.9-34.38-24.23-25.1-63.64,3.85-46.9,34.38,0,.01.02.03.03.04C14.52,59.66.06,86.07.06,114.89c-.97,15.38,9.34,49.24,45.75,76.66l39.31-26.67h.06s39.31,26.67,39.31,26.67c36.42-27.44,46.71-61.28,45.75-76.66,0-28.83-14.46-55.24-38.21-70.93ZM53.37,19.1c5.63-5.61,14.74-5.61,20.35,0l11.42,11.42,11.42-11.42c8.71-9.06,24.84-2.36,24.56,10.18,0,3.86-1.48,7.48-4.21,10.2l-31.77,31.77-31.77-31.77c-5.58-5.37-5.59-15,0-20.38ZM85.14,146.75c-11.84-8.99-25.75-23.02-25.75-31.86-.07-14.25,11.78-25.81,25.75-25.75,13.97-.06,25.82,11.5,25.75,25.75,0,8.84-13.91,22.87-25.75,31.86ZM14.89,114.89c0-24.48,12.61-46.88,33.24-59.68l22,22c-14.95,5.96-25.57,20.62-25.57,37.68,0,15.57,16.97,31.86,27.83,40.7l-25.62,17.38c-27.61-24.52-31.87-46.73-31.87-58.08ZM123.52,172.98l-25.62-17.39c10.86-8.84,27.82-25.13,27.82-40.7,0-17.06-10.62-31.72-25.57-37.68l22-22c20.63,12.8,33.24,35.2,33.24,59.68,0,11.35-4.26,33.56-31.87,58.08Z"/>
    </g>
  </g>
</svg>